<?xml version="1.0" encoding="utf-8"?>
<!-- Svg Vector Icons : http://www.onlinewebfonts.com/icon -->
<!DOCTYPE svg PUBLIC "-//W3C//DTD SVG 1.1//EN" "http://www.w3.org/Graphics/SVG/1.1/DTD/svg11.dtd">
<svg version="1.1" xmlns="http://www.w3.org/2000/svg" xmlns:xlink="http://www.w3.org/1999/xlink" x="0px" y="0px" viewBox="0 0 1000 1000" enable-background="new 0 0 1000 1000" xml:space="preserve">
<metadata> Svg Vector Icons : http://www.onlinewebfonts.com/icon </metadata>
<g><g transform="translate(0.000000,511.000000) scale(0.100000,-0.100000)"><path d="M4744.9,4493.5v-576.8h115.4h115.4v423v423l151.2-289.7c84.6-156.4,184.6-348.6,225.6-420.4l71.8-135.9h135.9h133.3v576.8v576.8h-117.9h-117.9l10.3-397.3c2.6-217.9,5.1-397.3,2.6-397.3s-30.7,53.8-58.9,123c-30.8,66.7-123,243.5-207.7,397.3l-156.4,274.3h-151.2h-151.2V4493.5z"/><path d="M4475.8,4562.7c-771.6-117.9-1458.6-397.3-2032.8-822.9c-853.6-633.2-1430.4-1474-1697-2476.3c-107.7-394.8-107.7-397.3,51.3-397.3c117.9,0,128.2,5.1,143.6,71.8c92.3,407.6,205.1,728,369.1,1056.1C1894.4,3160.5,2981.3,3991,4257.9,4249.9c146.1,30.8,271.7,59,276.8,64.1c5.1,2.6,5.1,64.1,0,133.3C4527.1,4555,4519.4,4570.4,4475.8,4562.7z"/><path d="M5903.6,4401.2l7.7-133.3l217.9-59c1568.8-417.8,2763.4-1645.7,3104.3-3194l30.8-148.7h138.4c128.2,0,135.9,2.6,123,59c-7.7,30.8-23.1,115.4-38.4,184.6c-74.4,364-287.1,894.6-499.9,1256.1C8331.2,3483.5,7226.3,4273,5980.5,4519.1l-84.6,17.9L5903.6,4401.2z"/><path d="M4888.5,1894.2c-169.2-620.4-312.7-1138.2-320.4-1151c-7.7-10.3-528.1-161.5-1156.1-330.7c-628-171.7-1122.8-317.9-1102.3-325.5c20.5-7.7,535.8-148.7,1140.7-312.7c607.5-161.5,1107.4-302.5,1112.5-307.6c7.7-5.1,151.2-528.1,323-1158.7C5173-2738,5201.2-2830.3,5224.3-2748.2c12.8,48.7,153.8,569.1,312.7,1153.6l289.7,1066.4l1117.6,302.5C7562.2-59.2,8072.3,86.9,8082.5,94.6c10.2,10.2-489.6,153.8-1110,323C6021.5,674,5837,730.4,5819,776.5c-12.8,28.2-148.6,525.5-305,1102.3c-156.4,579.3-292.2,1071.5-302.5,1097.1C5198.7,3006.7,5088.4,2632.4,4888.5,1894.2z M5206.4,1404.5c0-1192-2.6-1256.1-43.6-1233c-25.6,15.4-153.8,128.2-284.5,251.2l-238.4,225.6l274.3,1007.4c151.2,551.1,279.4,1004.9,284.5,1004.9C5201.2,2660.6,5206.4,2094.1,5206.4,1404.5z M6770.1,374l961.3-264l-1251-12.8L5226.9,84.4l271.7-264l271.7-266.6L5496-1420.4L5219.2-2397l-7.7,1253.5L5203.8,110l276.9,261.5c151.3,143.5,287.1,261.5,302.5,264C5796,635.5,6239.4,517.6,6770.1,374z M4921.8-174.5l-271.7-271.7l-984.4,269.2L2681.4,94.6h1256.1l1256.1,2.6L4921.8-174.5z"/><path d="M115.4,579.1c7.7-46.1,69.2-307.6,133.3-576.8l117.9-494.7h135.9h135.9L692.2-254c30.8,128.2,69.2,310.2,89.7,402.5C820.3,338.1,828,327.9,887-5.4c23.1-133.3,53.8-297.3,66.7-364l28.2-123h133.3H1251l130.7,507.6c71.8,276.9,138.4,535.8,148.7,576.8c15.4,69.2,15.4,69.2-112.8,69.2H1292l-69.2-364c-38.5-202.5-79.5-389.6-92.3-417.8c-20.5-46.1-23.1-46.1-23.1,12.8c-2.6,33.3-33.3,220.5-69.2,415.3l-66.7,353.8H835.7H697.3L666.5,515c-15.4-82-56.4-274.3-87.2-430.7c-61.5-315.3-53.8-325.6-141,179.4c-74.3,428.1-59,397.3-210.2,397.3H100L115.4,579.1z"/><path d="M9159.2,92.1l7.7-571.6h358.9h358.9l7.7,110.2l7.7,107.7h-243.5h-246.1v128.2V-5.4h217.9h217.9V97.2v100l-210.2,7.7l-212.8,7.7l-7.7,123l-7.7,120.5h230.7h233.3v102.5v102.5h-358.9H9154L9159.2,92.1z"/><path d="M681.9-805.1c51.3-312.8,251.2-871.6,430.6-1199.7c243.5-451.2,507.6-797.2,887-1158.7C2696.8-3832.6,3596.5-4253,4586-4376c151.3-20.5,156.4-12.8,92.3,156.4c-41,105.1-43.6,107.7-184.6,125.6c-230.7,28.2-694.7,153.8-956.2,256.3c-510.1,202.5-948.5,487.1-1361.2,881.8c-592.1,566.5-992,1248.4-1186.9,2014.9l-59,230.7l-133.3,7.7L664-694.9L681.9-805.1z"/><path d="M9218.1-882.1c-248.7-1027.9-887-1943.1-1776.5-2540.3c-433.2-292.2-1081.8-558.8-1548.3-635.7c-110.2-17.9-199.9-43.6-199.9-53.8c0-12.8,25.6-69.2,58.9-123c69.2-125.6,82-125.6,458.9-28.2c1292,335.8,2317.3,1166.4,2919.7,2363.5c135.9,271.7,299.9,733.1,364,1030.5l38.5,171.8h-135.9h-135.9L9218.1-882.1z"/><path d="M5144.9-3699.3c-205.1-48.7-317.9-194.8-289.7-371.7c20.5-128.2,76.9-182,292.2-284.6c205.1-97.4,246.1-158.9,169.2-243.5c-38.4-43.6-66.6-48.7-187.1-38.4c-76.9,7.7-164.1,20.5-194.8,30.8c-46.1,15.4-59,2.6-79.5-87.2c-25.6-100-25.6-102.5,51.3-128.2c41-15.4,156.4-28.2,256.3-28.2c212.8,0,353.8,66.6,415.3,194.8c97.4,207.6,17.9,361.5-258.9,487.1c-194.8,89.7-243.5,141-197.4,212.8c20.5,30.7,69.2,41,215.3,41c176.9,0,187.1,2.5,205.1,64.1c35.9,130.7,38.5,128.2-233.3,166.6C5273-3678.7,5201.2-3686.4,5144.9-3699.3z"/></g></g>
</svg>